# File created by Blade
# Date/Time:  Wed Jan 21 14:28:11 2015
# Frame Rate: 120.000 fps
#------------------------------------------------------
:FULLY-SPECIFIED
:DEGREES
519
root 18.844395 35.494745 -21.190189 -171.637201 -2.357885 -178.480847
Spine -18.624549 -1.662571 1.717112
Head 9.270829 -0.632040 -0.340770
LeftShoulder -9.770459 -37.277874 20.318682
LeftArm 7.452049 12.761535 -3.800944
LeftForeArm 21.346853 -0.000000 -0.517293
LeftHand -6.367399 0.000000 -3.759789
LeftHandThumb1 -26.253704 0.000000 33.147579
RightShoulder -10.283765 -0.707117 -11.136411
RightArm 10.248616 28.915374 5.826287
RightForeArm -43.814641 0.000000 5.008155
RightHand -5.317906 -0.000000 14.990016
RightHandThumb1 -24.326973 -0.000000 -32.862282
LeftUpLeg -0.180763 9.189753 2.413505
LeftLeg -6.763637 -0.000000 0.000000
LeftFoot -19.842385 27.442107 -11.904370
LeftToeBase 27.395440 -0.000000 -0.000000
RightUpLeg -1.712278 -12.286357 0.323234
RightLeg -3.735363 -0.000000 0.000000
RightFoot -19.717742 -21.855843 16.446544
RightToeBase 25.192446 -0.000000 -0.000000
520
root 18.841139 35.495518 -21.191736 -171.549608 -2.322188 -178.483125
Spine -18.669742 -1.536167 1.688590
Head 9.289669 -0.666741 -0.356710
LeftShoulder -9.880271 -37.473358 20.638811
LeftArm 7.429577 12.338962 -3.582884
LeftForeArm 21.461181 -0.000000 -0.540483
LeftHand -6.454178 0.000000 -3.767858
LeftHandThumb1 -26.253704 0.000000 33.147579
RightShoulder -10.415115 -0.512359 -11.333835
RightArm 10.029082 29.331496 5.410702
RightForeArm -43.849065 -0.000000 4.916155
RightHand -5.334523 -0.000000 14.840383
RightHandThumb1 -24.326973 -0.000000 -32.862282
LeftUpLeg -0.247751 9.194209 2.391357
LeftLeg -6.785512 -0.000000 0.000000
LeftFoot -19.839013 27.454581 -11.931191
LeftToeBase 27.379622 -0.000000 -0.000000
RightUpLeg -1.791556 -12.278638 0.331054
RightLeg -3.760678 -0.000000 0.000000
RightFoot -19.688092 -21.841535 16.448359
RightToeBase 25.221195 -0.000000 -0.000000
521
root 18.837588 35.496314 -21.192576 -171.465260 -2.291029 -178.482573
Spine -18.717521 -1.437488 1.665292
Head 9.334497 -0.632244 -0.339754
LeftShoulder -9.996194 -37.627641 20.952476
LeftArm 7.402492 11.952267 -3.351284
LeftForeArm 21.514012 -0.000000 -0.570265
LeftHand -6.613556 -0.000000 -3.818125
LeftHandThumb1 -26.253704 0.000000 33.147579
RightShoulder -10.531294 -0.353266 -11.554189
RightArm 9.815288 29.904799 5.117641
RightForeArm -44.195204 0.000000 4.965849
RightHand -5.474824 -0.000000 14.734434
RightHandThumb1 -24.326973 -0.000000 -32.862282
LeftUpLeg -0.311802 9.210598 2.368561
LeftLeg -6.814654 -0.000000 0.000000
LeftFoot -19.816527 27.474568 -11.948018
LeftToeBase 27.268458 -0.000000 -0.000000
RightUpLeg -1.869914 -12.282234 0.341012
RightLeg -3.778644 -0.000000 0.000000
RightFoot -19.683943 -21.835940 16.372670
RightToeBase 25.415392 -0.000000 -0.000000
522
root 18.834376 35.496611 -21.193672 -171.392984 -2.261075 -178.478244
Spine -18.755543 -1.372305 1.672915
Head 9.382455 -0.610527 -0.380397
LeftShoulder -10.150517 -37.697845 21.222070
LeftArm 7.432868 11.640585 -3.094436
LeftForeArm 21.386964 -0.000000 -0.659768
LeftHand -6.618864 -0.000000 -3.662225
LeftHandThumb1 -26.253704 0.000000 33.147579
RightShoulder -10.599626 -0.193405 -11.789660
RightArm 9.584333 30.351117 4.819034
RightForeArm -44.172766 -0.000000 5.022653
RightHand -5.689065 0.000000 14.633743
RightHandThumb1 -24.326973 -0.000000 -32.862282
LeftUpLeg -0.363880 9.209153 2.356276
LeftLeg -6.838090 -0.000000 0.000000
LeftFoot -19.831100 27.492543 -11.968926
LeftToeBase 27.336657 -0.000000 -0.000000
RightUpLeg -1.933865 -12.256563 0.350545
RightLeg -3.799300 -0.000000 0.000000
RightFoot -19.664812 -21.817100 16.390063
RightToeBase 25.421739 -0.000000 -0.000000
523
root 18.830681 35.497685 -21.195006 -171.319845 -2.237913 -178.486549
Spine -18.798704 -1.313945 1.665062
Head 9.429150 -0.563148 -0.416173
LeftShoulder -10.284351 -37.770421 21.497955
LeftArm 7.406521 11.234152 -2.880142
LeftForeArm 21.362585 -0.000000 -0.710092
LeftHand -6.671270 -0.000000 -3.677935
LeftHandThumb1 -26.253704 0.000000 33.147579
RightShoulder -10.644271 0.017950 -11.967529
RightArm 9.380185 30.578103 4.390461
RightForeArm -43.923611 -0.000000 4.767047
RightHand -5.706584 -0.000000 14.283867
RightHandThumb1 -24.326973 -0.000000 -32.862282
LeftUpLeg -0.419172 9.206498 2.330254
LeftLeg -6.861126 -0.000000 0.000000
LeftFoot -19.815957 27.511424 -11.999489
LeftToeBase 27.271257 -0.000000 -0.000000
RightUpLeg -1.993696 -12.255048 0.348721
RightLeg -3.831526 -0.000000 0.000000
RightFoot -19.618432 -21.764051 16.472477
RightToeBase 25.270855 -0.000000 -0.000000
524
root 18.827431 35.498826 -21.195558 -171.244547 -2.218271 -178.489885
Spine -18.834846 -1.238236 1.651234
Head 9.462203 -0.496156 -0.433617
LeftShoulder -10.368541 -37.927752 21.730480
LeftArm 7.334591 10.936516 -2.646929
LeftForeArm 21.262515 -0.000000 -0.732516
LeftHand -6.713351 -0.000000 -3.626899
LeftHandThumb1 -26.253704 0.000000 33.147579
RightShoulder -10.798975 0.211935 -12.201624
RightArm 9.236348 30.914542 4.163314
RightForeArm -44.050031 -0.000000 4.848178
RightHand -5.959382 -0.000000 14.226128
RightHandThumb1 -24.326973 -0.000000 -32.862282
LeftUpLeg -0.478293 9.214306 2.307156
LeftLeg -6.888544 -0.000000 0.000000
LeftFoot -19.806318 27.521445 -12.046289
LeftToeBase 27.271455 -0.000000 -0.000000
RightUpLeg -2.058809 -12.240850 0.352502
RightLeg -3.853922 -0.000000 0.000000
RightFoot -19.613416 -21.787740 16.424799
RightToeBase 25.415582 -0.000000 -0.000000
525
root 18.821708 35.499095 -21.196860 -171.175850 -2.199005 -178.515050
Spine -18.859959 -1.163991 1.611437
Head 9.499242 -0.465775 -0.423696
LeftShoulder -10.449381 -38.150801 21.987056
LeftArm 7.235508 10.664350 -2.442955
LeftForeArm 21.253157 -0.000000 -0.779015
LeftHand -6.618191 0.000000 -3.600318
LeftHandThumb1 -26.253704 0.000000 33.147579
RightShoulder -10.921181 0.434794 -12.432449
RightArm 9.073057 31.324654 3.944810
RightForeArm -44.228220 -0.000000 4.826047
RightHand -5.822898 -0.000000 14.238439
RightHandThumb1 -24.326973 -0.000000 -32.862282
LeftUpLeg -0.533135 9.217106 2.261621
LeftLeg -6.903268 -0.000000 0.000000
LeftFoot -19.801856 27.524338 -12.073179
LeftToeBase 27.259567 -0.000000 -0.000000
RightUpLeg -2.112763 -12.248519 0.332792
RightLeg -3.884332 -0.000000 0.000000
RightFoot -19.588009 -21.766854 16.405066
RightToeBase 25.388210 -0.000000 -0.000000
